<svg width="240" height="180" viewBox="0 0 240 180" fill="none" xmlns="http://www.w3.org/2000/svg">
  <!-- Sun -->
  <circle cx="50" cy="30" r="16" fill="#86F3DF" fill-opacity="0.7"/>
  <path d="M50 6v-8M50 54v8M26 30h-8M74 30h8M33 13l-6-6M67 47l6 6M33 47l-6 6M67 13l6-6" stroke="#86F3DF" stroke-width="2" stroke-linecap="round"/>

  <!-- Panel -->
  <g stroke="#86F3DF" stroke-width="2" fill="#141C28">
    <polygon points="30,100 170,70 200,130 60,160"/>
  </g>
  <defs>
    <clipPath id="panel-clip">
      <polygon points="30,100 170,70 200,130 60,160"/>
    </clipPath>
  </defs>
  <g clip-path="url(#panel-clip)" stroke="#86F3DF" stroke-width="2">
    <line x1="30" y1="115" x2="195" y2="80" stroke-opacity="0.55"/>
    <line x1="30" y1="135" x2="185" y2="100" stroke-opacity="0.55"/>
    <line x1="30" y1="150" x2="195" y2="115" stroke-opacity="0.55"/>

    <line x1="75" y1="95" x2="110" y2="165" stroke-opacity="0.35"/>
    <line x1="120" y1="86" x2="150" y2="152" stroke-opacity="0.35"/>
  </g>
</svg>
