<svg width="520" height="520" viewBox="0 0 520 520" fill="none" xmlns="http://www.w3.org/2000/svg">
  <rect x="0.5" y="0.5" width="519" height="519" rx="24" fill="#10161F" stroke="#243044"/>

  <!-- Generator (bottom centre) -->
  <g transform="translate(140 330)">
    <rect x="30" y="60" width="180" height="90" rx="12" fill="#141C28" stroke="#243044" stroke-width="2"/>
    <circle cx="90" cy="105" r="26" stroke="#86F3DF" stroke-width="3"/>
    <path d="M90 90v30M75 105h30" stroke="#86F3DF" stroke-width="3" stroke-linecap="round"/>
    <rect x="140" y="88" width="50" height="14" rx="6" fill="#7CEBB1" fill-opacity="0.6"/>
    <rect x="140" y="110" width="36" height="12" rx="6" fill="#86F3DF" fill-opacity="0.5"/>
    <rect x="50" y="150" width="140" height="10" rx="5" fill="#243044"/>
  </g>

  <!-- Factory (center) -->
  <g transform="translate(150 156)">
    <rect x="20" y="70" width="200" height="90" rx="10" fill="#141C28" stroke="#243044" stroke-width="2"/>
    <polygon points="20,90 70,60 100,90 140,60 170,90 220,70 220,110 20,110" fill="#141C28" stroke="#243044" stroke-width="2"/>
    <rect x="40" y="118" width="36" height="28" rx="4" fill="#0B0F14" stroke="#243044"/>
    <rect x="90" y="118" width="36" height="28" rx="4" fill="#0B0F14" stroke="#243044"/>
    <rect x="140" y="118" width="36" height="28" rx="4" fill="#0B0F14" stroke="#243044"/>
    <rect x="190" y="48" width="16" height="32" rx="4" fill="#141C28" stroke="#243044"/>
  </g>

  <!-- Grid post (top right) -->
  <g transform="translate(360 80)">
    <g stroke="#86F3DF" stroke-width="3" stroke-linecap="round" stroke-linejoin="round">
      <path d="M70 20v120"/>
      <path d="M40 45h60"/>
      <path d="M32 70h76"/>
      <path d="M45 95h50"/>
    </g>
    <g stroke="#7CEBB1" stroke-width="3" stroke-linecap="round">
      <path d="M40 45l-14 10"/>
      <path d="M100 45l14 10"/>
      <path d="M32 70l-14 10"/>
      <path d="M108 70l14 10"/>
    </g>
    <circle cx="70" cy="140" r="8" fill="#7CEBB1" fill-opacity="0.8"/>
  </g>

  <!-- Smooth connections -->
  <path d="M280 320 C260 340, 270 350, 270 390" stroke="#86F3DF" stroke-opacity="0.6" stroke-width="3" stroke-linecap="round"/>
  <path d="M370 280 C390 250, 380 220, 420 220" stroke="#7CEBB1" stroke-opacity="0.45" stroke-width="3" stroke-linecap="round"/>
</svg>
