<svg xmlns="http://www.w3.org/2000/svg" viewBox="0 0 640 420" fill="none" aria-label="EMS dashboard schematic">
  <defs>
    <filter id="softGlow" x="-20%" y="-20%" width="140%" height="140%">
      <feGaussianBlur stdDeviation="2.2" result="b"/>
      <feColorMatrix in="b" type="matrix"
        values="1 0 0 0 0
                0 1 0 0 0
                0 0 1 0 0
                0 0 0 0.35 0" result="g"/>
      <feMerge>
        <feMergeNode in="g"/>
        <feMergeNode in="SourceGraphic"/>
      </feMerge>
    </filter>
    <linearGradient id="scan" x1="0" y1="0" x2="1" y2="0">
      <stop offset="0" stop-color="currentColor" stop-opacity="0"/>
      <stop offset="0.5" stop-color="currentColor" stop-opacity="0.20"/>
      <stop offset="1" stop-color="currentColor" stop-opacity="0"/>
    </linearGradient>
  </defs>

  <g stroke="#86F3DF" stroke-width="2" stroke-linecap="round" stroke-linejoin="round" filter="url(#softGlow)">
    <rect x="36" y="36" width="568" height="348" rx="18" opacity="0.9"/>
    <path d="M36 96H604" opacity="0.45"/>
    <circle cx="538" cy="66" r="7" fill="#1a2433" stroke="#243044"/>
    <circle cx="562" cy="66" r="7" fill="#1a2433" stroke="#243044"/>
    <circle cx="586" cy="66" r="7" fill="#1a2433" stroke="#243044"/>
    <path d="M534 66h8" stroke="#0B0F14" stroke-width="2" stroke-linecap="round"/>
    <rect x="558" y="62" width="8" height="8" rx="1.5" stroke="#0B0F14" stroke-width="2"/>
    <path d="M582 62l8 8M590 62l-8 8" stroke="#0B0F14" stroke-width="2" stroke-linecap="round"/>

    <rect x="58" y="118" width="132" height="244" rx="14" opacity="0.35"/>
    <path d="M78 150H170M78 182H156M78 214H170M78 246H150M78 278H170M78 310H158" opacity="0.6"/>
    <path d="M78 334H138" opacity="0.45"/>

    <rect x="210" y="118" width="372" height="160" rx="14" opacity="0.35"/>
    <path d="M240 138V258M280 138V258M320 138V258M360 138V258M400 138V258M440 138V258M480 138V258M520 138V258M560 138V258" opacity="0.10"/>
    <path d="M230 158H572M230 198H572M230 238H572" opacity="0.10"/>
    <path d="M230 240 C260 220, 280 232, 302 210 C330 182, 360 190, 382 168 C410 140, 450 160, 478 150 C510 138, 540 148, 572 132" opacity="0.9" stroke="#7CEBB1"/>
    <circle cx="230" cy="240" r="4" opacity="0.9"/>
    <circle cx="302" cy="210" r="4" opacity="0.9"/>
    <circle cx="382" cy="168" r="4" opacity="0.9"/>
    <circle cx="478" cy="150" r="4" opacity="0.9"/>
    <circle cx="572" cy="132" r="4" opacity="0.9"/>

    <rect x="210" y="292" width="176" height="70" rx="14" opacity="0.4"/>
    <rect x="406" y="292" width="176" height="70" rx="14" opacity="0.4"/>

    <path d="M264 308 L252 328 H264 L252 346 L280 320 H268 L280 308 Z" opacity="0.9" stroke="#7CEBB1"/>
    <path d="M430 309 h44" opacity="0.6"/>
    <path d="M430 327 h64" opacity="0.85"/>
    <path d="M430 345 h36" opacity="0.45"/>

    <rect x="210" y="118" width="372" height="160" rx="14" fill="url(#scan)" opacity="0.45"/>
  </g>
</svg>
