<svg width="520" height="520" viewBox="0 0 520 520" fill="none" xmlns="http://www.w3.org/2000/svg">
  <rect x="0.5" y="0.5" width="519" height="519" rx="24" fill="#10161F" stroke="#243044"/>

  <!-- Cloud (replacing PV) -->
  <g transform="translate(40 20)">
    <path d="M50 92c0-12 9-22 21-23 4-14 17-24 33-24 14 0 27 7 33 18 2-1 5-1 8-1 13 0 24 10 24 23 0 13-11 24-24 24H71c-12 0-21-9-21-21Z" fill="#141C28" stroke="#86F3DF" stroke-width="2"/>
    <path d="M78 84h56" stroke="#7CEBB1" stroke-width="3" stroke-linecap="round" opacity="0.7"/>
    <path d="M92 98h36" stroke="#86F3DF" stroke-width="3" stroke-linecap="round" opacity="0.6"/>
  </g>

  <!-- Factory -->
  <g transform="translate(150 156)">
    <rect x="20" y="70" width="200" height="90" rx="10" fill="#141C28" stroke="#243044" stroke-width="2"/>
    <polygon points="20,90 70,60 100,90 140,60 170,90 220,70 220,110 20,110" fill="#141C28" stroke="#243044" stroke-width="2"/>
    <rect x="40" y="118" width="36" height="28" rx="4" fill="#0B0F14" stroke="#243044"/>
    <rect x="90" y="118" width="36" height="28" rx="4" fill="#0B0F14" stroke="#243044"/>
    <rect x="140" y="118" width="36" height="28" rx="4" fill="#0B0F14" stroke="#243044"/>
    <rect x="190" y="48" width="16" height="32" rx="4" fill="#141C28" stroke="#243044"/>
  </g>

  <!-- Battery -->
  <g transform="translate(150 360)">
    <rect x="12" y="26" width="176" height="88" rx="14" fill="#141C28" stroke="#243044" stroke-width="2"/>
    <rect x="188" y="56" width="18" height="28" rx="6" fill="#243044"/>
    <rect x="32" y="44" width="120" height="12" rx="6" fill="#86F3DF" fill-opacity="0.7"/>
    <rect x="32" y="64" width="90" height="10" rx="5" fill="#7CEBB1" fill-opacity="0.6"/>
    <rect x="32" y="82" width="60" height="10" rx="5" fill="#7CEBB1" fill-opacity="0.45"/>
    <path d="M150 60h20" stroke="#86F3DF" stroke-width="3" stroke-linecap="round"/>
    <path d="M160 50v20" stroke="#86F3DF" stroke-width="3" stroke-linecap="round"/>
  </g>

  <!-- Grid post -->
  <g transform="translate(360 80)">
    <g stroke="#86F3DF" stroke-width="3" stroke-linecap="round" stroke-linejoin="round">
      <path d="M70 20v120"/>
      <path d="M40 45h60"/>
      <path d="M32 70h76"/>
      <path d="M45 95h50"/>
    </g>
    <g stroke="#7CEBB1" stroke-width="3" stroke-linecap="round">
      <path d="M40 45l-14 10"/>
      <path d="M100 45l14 10"/>
      <path d="M32 70l-14 10"/>
      <path d="M108 70l14 10"/>
    </g>
    <circle cx="70" cy="140" r="8" fill="#7CEBB1" fill-opacity="0.8"/>
  </g>

  <!-- Smooth connections -->
  <path d="M280 220 C210 195, 240 185, 155 130" stroke="#86F3DF" stroke-opacity="0.6" stroke-width="3" stroke-linecap="round"/>
  <path d="M260 320 C260 340, 270 350, 250 380" stroke="#86F3DF" stroke-opacity="0.6" stroke-width="3" stroke-linecap="round"/>
  <path d="M370 280 C390 250, 380 220, 420 220" stroke="#7CEBB1" stroke-opacity="0.45" stroke-width="3" stroke-linecap="round"/>
</svg>
