<svg width="520" height="520" viewBox="0 0 520 520" fill="none" xmlns="http://www.w3.org/2000/svg">
  <rect x="0.5" y="0.5" width="519" height="519" rx="24" fill="#10161F" stroke="#243044"/>
  <rect x="160" y="90" width="200" height="300" rx="18" fill="#141C28" stroke="#243044" stroke-width="2"/>
  <rect x="190" y="130" width="140" height="90" rx="10" fill="#0B0F14" stroke="#243044"/>
  <path d="M258 150 L242 176 H258 L244 202 L278 170 H262 L276 150 Z" stroke="#86F3DF" stroke-width="3" stroke-linejoin="round"/>
  <rect x="200" y="250" width="120" height="12" rx="6" fill="#86F3DF" fill-opacity="0.7"/>
  <rect x="200" y="275" width="90" height="10" rx="5" fill="#7CEBB1" fill-opacity="0.6"/>
  <rect x="200" y="297" width="60" height="10" rx="5" fill="#7CEBB1" fill-opacity="0.45"/>
  <path d="M360 180 C410 210 420 280 395 330 C380 360 350 380 320 385" stroke="#86F3DF" stroke-opacity="0.6" stroke-width="6" stroke-linecap="round"/>
  <rect x="210" y="400" width="100" height="20" rx="10" fill="#243044"/>
  <rect x="304" y="372" width="18" height="26" rx="4" fill="#7CEBB1"/>
  <rect x="296" y="378" width="8" height="4" rx="2" fill="#7CEBB1"/>
  <rect x="296" y="390" width="8" height="4" rx="2" fill="#7CEBB1"/>
</svg>
