<svg width="900" height="700" viewBox="0 0 900 700" fill="none" xmlns="http://www.w3.org/2000/svg">
  <defs>
    <linearGradient id="g1" x1="0" y1="0" x2="1" y2="1">
      <stop offset="0" stop-color="#4DD6B7" stop-opacity="0.7"/>
      <stop offset="1" stop-color="#5FA6FF" stop-opacity="0.2"/>
    </linearGradient>
    <radialGradient id="g2" cx="0" cy="0" r="1" gradientUnits="userSpaceOnUse" gradientTransform="translate(640 180) rotate(120) scale(320 320)">
      <stop offset="0" stop-color="#4DD6B7" stop-opacity="0.5"/>
      <stop offset="1" stop-color="#0B0F14" stop-opacity="0"/>
    </radialGradient>
  </defs>
  <rect x="0.5" y="0.5" width="899" height="699" rx="28" stroke="#243044"/>
  <rect x="40" y="50" width="820" height="600" rx="24" fill="#10161F" stroke="#243044"/>
  <circle cx="640" cy="190" r="220" fill="url(#g2)"/>
  <path d="M160 510 C260 430 360 440 460 360 C560 280 700 280 780 200" stroke="url(#g1)" stroke-width="4"/>
  <path d="M120 420 C220 340 330 360 430 300 C530 240 690 240 780 170" stroke="#4DD6B7" stroke-opacity="0.35" stroke-width="2"/>
  <circle cx="220" cy="420" r="10" fill="#4DD6B7"/>
  <circle cx="380" cy="360" r="8" fill="#5FA6FF"/>
  <circle cx="540" cy="300" r="10" fill="#4DD6B7"/>
  <circle cx="700" cy="230" r="8" fill="#FFB454"/>
  <rect x="140" y="120" width="220" height="110" rx="16" fill="#141C28" stroke="#243044"/>
  <rect x="170" y="150" width="160" height="10" rx="5" fill="#4DD6B7" fill-opacity="0.7"/>
  <rect x="170" y="175" width="120" height="8" rx="4" fill="#5FA6FF" fill-opacity="0.6"/>
  <rect x="170" y="195" width="90" height="8" rx="4" fill="#FFB454" fill-opacity="0.6"/>
  <rect x="140" y="260" width="260" height="120" rx="16" fill="#141C28" stroke="#243044"/>
  <rect x="170" y="295" width="200" height="10" rx="5" fill="#4DD6B7" fill-opacity="0.7"/>
  <rect x="170" y="320" width="150" height="8" rx="4" fill="#5FA6FF" fill-opacity="0.6"/>
  <rect x="170" y="342" width="110" height="8" rx="4" fill="#FFB454" fill-opacity="0.6"/>
</svg>
