<svg width="900" height="520" viewBox="0 0 900 520" fill="none" xmlns="http://www.w3.org/2000/svg">
  <rect x="0.5" y="0.5" width="899" height="519" rx="24" fill="#10161F" stroke="#243044"/>
  <path d="M120 380 L260 300 L420 350 L560 250 L720 300" stroke="#4DD6B7" stroke-opacity="0.4" stroke-width="3"/>
  <path d="M160 180 L300 220 L460 170 L620 210 L780 150" stroke="#5FA6FF" stroke-opacity="0.3" stroke-width="2"/>
  <circle cx="120" cy="380" r="16" fill="#4DD6B7"/>
  <circle cx="260" cy="300" r="12" fill="#5FA6FF"/>
  <circle cx="420" cy="350" r="16" fill="#4DD6B7"/>
  <circle cx="560" cy="250" r="12" fill="#FFB454"/>
  <circle cx="720" cy="300" r="14" fill="#4DD6B7"/>
  <circle cx="160" cy="180" r="10" fill="#5FA6FF"/>
  <circle cx="300" cy="220" r="10" fill="#4DD6B7"/>
  <circle cx="460" cy="170" r="10" fill="#FFB454"/>
  <circle cx="620" cy="210" r="10" fill="#5FA6FF"/>
  <circle cx="780" cy="150" r="10" fill="#4DD6B7"/>
  <rect x="60" y="60" width="280" height="120" rx="16" fill="#141C28" stroke="#243044"/>
  <rect x="90" y="90" width="220" height="10" rx="5" fill="#4DD6B7" fill-opacity="0.7"/>
  <rect x="90" y="115" width="150" height="8" rx="4" fill="#5FA6FF" fill-opacity="0.6"/>
  <rect x="90" y="135" width="120" height="8" rx="4" fill="#FFB454" fill-opacity="0.6"/>
</svg>
