<svg xmlns="http://www.w3.org/2000/svg" viewBox="0 0 520 420" fill="none" aria-label="Secure control schematic shield">
  <defs>
    <filter id="softGlow3" x="-20%" y="-20%" width="140%" height="140%">
      <feGaussianBlur stdDeviation="2.0" result="b"/>
      <feColorMatrix in="b" type="matrix"
        values="1 0 0 0 0
                0 1 0 0 0
                0 0 1 0 0
                0 0 0 0.34 0" result="g"/>
      <feMerge>
        <feMergeNode in="g"/>
        <feMergeNode in="SourceGraphic"/>
      </feMerge>
    </filter>
  </defs>

  <g stroke="#86F3DF" stroke-width="2" stroke-linecap="round" stroke-linejoin="round" filter="url(#softGlow3)">
    <path d="M260 56c52 34 96 30 96 30v120c0 86-60 134-96 158-36-24-96-72-96-158V86s44 4 96-30Z" opacity="0.85" fill="#7CEBB1" fill-opacity="0.18"/>
    <path d="M260 106v220" opacity="0.25"/>
    <path d="M188 164h144" opacity="0.25"/>

    <rect x="222" y="188" width="76" height="70" rx="14" opacity="0.6" fill="#7CEBB1" fill-opacity="0.25" stroke="#7CEBB1"/>
    <path d="M240 188v-18c0-18 14-32 20-32s20 14 20 32v18" opacity="0.75" stroke="#7CEBB1"/>
    <path d="M260 218v18" opacity="0.9" stroke="#7CEBB1"/>
    <circle cx="260" cy="214" r="6" opacity="0.9" fill="#7CEBB1" stroke="#7CEBB1"/>

    <path d="M120 120h70l20 20" opacity="0.55"/>
    <path d="M400 120h-70l-20 20" opacity="0.55"/>
    <path d="M120 300h70l20-20" opacity="0.55"/>
    <path d="M400 300h-70l-20-20" opacity="0.55"/>
    <circle cx="120" cy="120" r="6" opacity="0.7"/>
    <circle cx="400" cy="120" r="6" opacity="0.7"/>
    <circle cx="120" cy="300" r="6" opacity="0.7"/>
    <circle cx="400" cy="300" r="6" opacity="0.7"/>
  </g>
</svg>
